<svg width="20" height="20" viewBox="0 0 20 20" fill="none" xmlns="http://www.w3.org/2000/svg">
<path d="M7.74167 13.2333L10.975 10L7.74167 6.76668C7.66452 6.68953 7.60332 6.59793 7.56157 6.49713C7.51981 6.39633 7.49832 6.28829 7.49832 6.17918C7.49832 6.07007 7.51981 5.96203 7.56157 5.86123C7.60332 5.76042 7.66452 5.66883 7.74167 5.59168C7.81882 5.51453 7.91042 5.45333 8.01122 5.41157C8.11202 5.36982 8.22006 5.34833 8.32917 5.34833C8.43828 5.34833 8.54632 5.36982 8.64712 5.41157C8.74793 5.45333 8.83952 5.51453 8.91667 5.59168L12.7417 9.41668C13.0667 9.74168 13.0667 10.2667 12.7417 10.5917L8.91667 14.4167C8.83958 14.4939 8.748 14.5552 8.64719 14.597C8.54638 14.6389 8.43831 14.6604 8.32917 14.6604C8.22003 14.6604 8.11196 14.6389 8.01115 14.597C7.91034 14.5552 7.81877 14.4939 7.74167 14.4167C7.42501 14.0917 7.41667 13.5583 7.74167 13.2333Z" fill="#4E4E4E"/>
</svg>
