<svg width="155" height="59" viewBox="0 0 155 59" fill="none" xmlns="http://www.w3.org/2000/svg">
<path d="M17.824 23.424C16.928 24.64 15.7227 25.824 14.208 26.976C12.6933 28.1067 11.0293 28.672 9.216 28.672C7.296 28.672 5.728 28.128 4.512 27.04C3.296 25.9307 2.688 24.2987 2.688 22.144C2.688 20.672 2.944 19.008 3.456 17.152C3.968 15.296 4.56533 13.6853 5.248 12.32C5.952 10.9333 6.76267 9.78133 7.68 8.864C8.61867 7.94667 9.55733 7.488 10.496 7.488C11.4133 7.488 12.1173 7.81867 12.608 8.48C13.12 9.14133 13.376 9.96266 13.376 10.944C13.376 11.3067 13.3013 11.68 13.152 12.064C13.024 12.4267 12.8747 12.736 12.704 12.992C12.5333 13.248 12.4053 13.376 12.32 13.376C12.1493 13.376 12.064 13.28 12.064 13.088C12.064 13.024 12.096 12.8853 12.16 12.672C12.2453 12.4373 12.288 12.2453 12.288 12.096C12.288 11.5627 12.224 11.0613 12.096 10.592C11.9893 10.1867 11.776 9.856 11.456 9.6C11.136 9.32267 10.784 9.184 10.4 9.184C8.864 9.184 7.424 10.6667 6.08 13.632C5.54667 14.8267 5.09867 16.1707 4.736 17.664C4.37333 19.1573 4.192 20.5973 4.192 21.984C4.192 22.944 4.384 23.8187 4.768 24.608C5.17333 25.3973 5.73867 26.0267 6.464 26.496C7.21067 26.9653 8.07467 27.2 9.056 27.2C10.6133 27.2 12.0213 26.8267 13.28 26.08C14.56 25.3333 15.8187 24.3733 17.056 23.2C17.0987 23.1573 17.248 22.9227 17.504 22.496C17.76 22.048 17.952 21.824 18.08 21.824C18.208 21.824 18.2933 21.856 18.336 21.92C18.3787 21.984 18.4 22.1013 18.4 22.272C18.4 22.4853 18.208 22.8693 17.824 23.424ZM20.2193 8.448C19.8566 8.448 19.4833 8.29867 19.0993 8C18.7366 7.70133 18.5553 7.456 18.5553 7.264C18.5553 7.02933 18.6619 6.80533 18.8753 6.592C19.1099 6.37867 19.3446 6.272 19.5793 6.272C19.5793 6.272 19.6539 6.304 19.8033 6.368C19.9739 6.41067 20.1659 6.54933 20.3793 6.784C20.5499 6.95467 20.7419 7.17867 20.9553 7.456C21.1686 7.73333 21.2753 7.904 21.2753 7.968C21.2753 8.288 20.9233 8.448 20.2193 8.448ZM21.1793 28.736C20.8806 28.7147 20.6566 28.2347 20.5073 27.296C20.3793 26.3573 20.2406 24.576 20.0913 21.952C20.0059 20.224 19.9313 18.5387 19.8673 16.896C19.8033 15.232 19.7606 13.952 19.7393 13.056C19.7393 12.8213 19.7713 12.6507 19.8353 12.544C19.9206 12.416 20.0699 12.352 20.2833 12.352C20.7739 12.352 21.0833 12.5547 21.2113 12.96C21.3393 13.3653 21.4033 14.144 21.4033 15.296L21.3713 19.072C21.3713 21.2267 21.4353 22.9547 21.5633 24.256C21.5633 24.32 21.6593 25.0027 21.8513 26.304C22.0006 27.2 22.0753 27.7973 22.0753 28.096C22.0753 28.3093 21.9793 28.4693 21.7873 28.576C21.6166 28.704 21.4139 28.7573 21.1793 28.736ZM38.164 16.032C36.2013 16.3733 35.1027 16.5653 34.868 16.608L32.788 16.96C32.788 18.0693 32.7987 19.232 32.82 20.448C32.8627 21.664 32.916 22.7307 32.98 23.648C33.0653 24.8853 33.2147 25.8347 33.428 26.496C33.6413 27.1573 33.7587 27.5307 33.78 27.616C33.78 27.8293 33.6413 28.0213 33.364 28.192C33.108 28.384 32.8627 28.48 32.628 28.48C32.5 28.48 32.3933 28.4373 32.308 28.352C32.2227 28.288 32.148 28.1707 32.084 28C31.956 27.7013 31.828 27.1467 31.7 26.336C31.5933 25.5253 31.508 24.6293 31.444 23.648C31.38 22.7733 31.3267 21.76 31.284 20.608C31.2627 19.4347 31.252 18.304 31.252 17.216C30.0573 17.408 28.8307 17.6427 27.572 17.92C26.4413 18.1547 25.7693 18.272 25.556 18.272C25.3 18.272 25.0547 18.1973 24.82 18.048C24.6067 17.8987 24.5 17.696 24.5 17.44C24.5 17.1627 24.596 16.9813 24.788 16.896C24.98 16.8107 25.3 16.768 25.748 16.768C26.068 16.768 26.5373 16.7147 27.156 16.608C27.7747 16.48 28.1693 16.3947 28.34 16.352C29.7693 16.0747 30.74 15.8933 31.252 15.808C31.252 15.36 31.2307 14.7733 31.188 14.048C31.1453 13.0667 31.124 12.32 31.124 11.808C31.124 10.976 31.1453 10.336 31.188 9.888C31.252 9.41867 31.3587 9.00267 31.508 8.64C31.6787 8.21333 31.9987 8 32.468 8C32.66 8 32.788 8.032 32.852 8.096C32.916 8.16 32.948 8.27733 32.948 8.448C32.948 8.576 32.8947 8.94933 32.788 9.568C32.6813 10.1867 32.628 11.008 32.628 12.032C32.628 12.8213 32.6493 13.7067 32.692 14.688L32.724 15.552C33.684 15.4027 35.5827 15.008 38.42 14.368C38.5907 14.3253 38.7293 14.176 38.836 13.92C38.964 13.664 39.092 13.536 39.22 13.536C39.4547 13.536 39.6893 13.6747 39.924 13.952C40.18 14.208 40.308 14.4747 40.308 14.752C40.308 15.1147 40.148 15.392 39.828 15.584C39.5293 15.776 38.9747 15.9253 38.164 16.032ZM52.1845 17.056C51.9285 18.9333 51.7898 19.9893 51.7685 20.224C51.4912 22.848 51.2885 24.8533 51.1605 26.24C51.0538 27.6053 51.0005 28.8427 51.0005 29.952C51.0005 30.8693 51.0645 31.5947 51.1925 32.128C51.3418 32.6613 51.4912 33.0773 51.6405 33.376C51.8112 33.696 51.8965 33.888 51.8965 33.952C51.8965 34.144 51.7258 34.3147 51.3845 34.464C51.0432 34.6133 50.6912 34.688 50.3285 34.688C50.0512 34.688 49.8272 34.3147 49.6565 33.568C49.5072 32.8213 49.4325 31.6587 49.4325 30.08C49.4325 28.8853 49.5498 27.2747 49.7845 25.248L50.2645 20.832C49.6885 21.9413 48.9738 23.008 48.1205 24.032C47.2885 25.0347 46.4245 25.536 45.5285 25.536C44.6965 25.536 43.9498 24.8107 43.2885 23.36C42.6272 21.9093 42.1045 20.2667 41.7205 18.432C41.3578 16.5973 41.1765 15.2533 41.1765 14.4C41.1765 13.8667 41.3365 13.6 41.6565 13.6C42.1258 13.6 42.4245 14.0373 42.5525 14.912C43.3632 20.8427 44.4938 23.808 45.9445 23.808C46.5205 23.808 47.0218 23.584 47.4485 23.136C47.8965 22.6667 48.4192 21.952 49.0165 20.992C49.2938 20.544 49.5925 19.9467 49.9125 19.2C50.2325 18.4533 50.4778 17.8347 50.6485 17.344L50.8725 14.112C50.9152 13.6213 50.9792 13.28 51.0645 13.088C51.1498 12.8747 51.3205 12.768 51.5765 12.768C51.7898 12.768 52.0032 12.896 52.2165 13.152C52.4298 13.3867 52.5365 13.6213 52.5365 13.856C52.5365 14.3467 52.4192 15.4133 52.1845 17.056Z" fill="#F03800"/>
<path d="M77.8864 15.1591C77.697 14.5455 77.4356 13.9962 77.1023 13.5114C76.7765 13.0189 76.3826 12.5985 75.9205 12.25C75.4659 11.9015 74.9432 11.6402 74.3523 11.4659C73.7614 11.2841 73.1174 11.1932 72.4205 11.1932C71.1705 11.1932 70.0568 11.5076 69.0795 12.1364C68.1023 12.7652 67.3333 13.6894 66.7727 14.9091C66.2197 16.1212 65.9432 17.5985 65.9432 19.3409C65.9432 21.0985 66.2197 22.5871 66.7727 23.8068C67.3258 25.0265 68.0947 25.9545 69.0795 26.5909C70.0644 27.2197 71.2083 27.5341 72.5114 27.5341C73.6932 27.5341 74.7159 27.3068 75.5795 26.8523C76.4508 26.3977 77.1212 25.7538 77.5909 24.9205C78.0606 24.0795 78.2955 23.0947 78.2955 21.9659L79.25 22.1136H72.9318V18.8182H82.375V21.6136C82.375 23.6061 81.9508 25.3295 81.1023 26.7841C80.2538 28.2386 79.0871 29.3598 77.6023 30.1477C76.1174 30.928 74.4129 31.3182 72.4886 31.3182C70.3447 31.3182 68.4621 30.8371 66.8409 29.875C65.2273 28.9053 63.9659 27.5303 63.0568 25.75C62.1553 23.9621 61.7045 21.8409 61.7045 19.3864C61.7045 17.5076 61.9697 15.8295 62.5 14.3523C63.0379 12.875 63.7879 11.6212 64.75 10.5909C65.7121 9.55303 66.8409 8.76515 68.1364 8.22727C69.4318 7.68182 70.8409 7.40909 72.3636 7.40909C73.6515 7.40909 74.8523 7.59848 75.9659 7.97727C77.0795 8.34848 78.0682 8.87879 78.9318 9.56818C79.803 10.2576 80.5189 11.0758 81.0795 12.0227C81.6402 12.9697 82.0076 14.0152 82.1818 15.1591H77.8864ZM86.2699 31V13.5455H90.2585V16.4545H90.4403C90.7585 15.447 91.304 14.6705 92.0767 14.125C92.857 13.572 93.7472 13.2955 94.7472 13.2955C94.9744 13.2955 95.2282 13.3068 95.5085 13.3295C95.7964 13.3447 96.035 13.3712 96.2244 13.4091V17.1932C96.0502 17.1326 95.7737 17.0795 95.3949 17.0341C95.0237 16.9811 94.6638 16.9545 94.3153 16.9545C93.5653 16.9545 92.8911 17.1174 92.2926 17.4432C91.7017 17.7614 91.2358 18.2045 90.8949 18.7727C90.554 19.3409 90.3835 19.9962 90.3835 20.7386V31H86.2699ZM110.082 23.6591V13.5455H114.196V31H110.207V27.8977H110.026C109.632 28.875 108.984 29.6742 108.082 30.2955C107.188 30.9167 106.086 31.2273 104.776 31.2273C103.632 31.2273 102.62 30.9735 101.741 30.4659C100.87 29.9508 100.188 29.2045 99.696 28.2273C99.2036 27.2424 98.9574 26.053 98.9574 24.6591V13.5455H103.071V24.0227C103.071 25.1288 103.374 26.0076 103.98 26.6591C104.586 27.3106 105.382 27.6364 106.366 27.6364C106.973 27.6364 107.56 27.4886 108.128 27.1932C108.696 26.8977 109.162 26.4583 109.526 25.875C109.897 25.2841 110.082 24.5455 110.082 23.6591ZM118.608 31V7.72727H122.722V16.4318H122.892C123.104 16.0076 123.403 15.5568 123.79 15.0795C124.176 14.5947 124.699 14.1818 125.358 13.8409C126.017 13.4924 126.858 13.3182 127.881 13.3182C129.229 13.3182 130.445 13.6629 131.528 14.3523C132.619 15.0341 133.483 16.0455 134.119 17.3864C134.763 18.7197 135.085 20.3561 135.085 22.2955C135.085 24.2121 134.771 25.8409 134.142 27.1818C133.513 28.5227 132.657 29.5455 131.574 30.25C130.491 30.9545 129.263 31.3068 127.892 31.3068C126.892 31.3068 126.063 31.1402 125.403 30.8068C124.744 30.4735 124.214 30.072 123.812 29.6023C123.419 29.125 123.112 28.6742 122.892 28.25H122.653V31H118.608ZM122.642 22.2727C122.642 23.4015 122.801 24.3902 123.119 25.2386C123.445 26.0871 123.911 26.75 124.517 27.2273C125.131 27.697 125.873 27.9318 126.744 27.9318C127.653 27.9318 128.415 27.6894 129.028 27.2045C129.642 26.7121 130.104 26.0417 130.415 25.1932C130.733 24.3371 130.892 23.3636 130.892 22.2727C130.892 21.1894 130.737 20.2273 130.426 19.3864C130.116 18.5455 129.653 17.8864 129.04 17.4091C128.426 16.9318 127.661 16.6932 126.744 16.6932C125.866 16.6932 125.119 16.9242 124.506 17.3864C123.892 17.8485 123.426 18.4962 123.108 19.3295C122.797 20.1629 122.642 21.1439 122.642 22.2727ZM152.378 18.1591L148.628 18.5682C148.522 18.1894 148.336 17.8333 148.071 17.5C147.813 17.1667 147.465 16.8977 147.026 16.6932C146.586 16.4886 146.048 16.3864 145.412 16.3864C144.556 16.3864 143.836 16.572 143.253 16.9432C142.677 17.3144 142.393 17.7955 142.401 18.3864C142.393 18.8939 142.579 19.3068 142.957 19.625C143.344 19.9432 143.98 20.2045 144.866 20.4091L147.844 21.0455C149.495 21.4015 150.723 21.9659 151.526 22.7386C152.336 23.5114 152.745 24.5227 152.753 25.7727C152.745 26.8712 152.423 27.8409 151.787 28.6818C151.158 29.5152 150.283 30.1667 149.162 30.6364C148.041 31.1061 146.753 31.3409 145.298 31.3409C143.162 31.3409 141.442 30.8939 140.139 30C138.836 29.0985 138.06 27.8447 137.81 26.2386L141.821 25.8523C142.003 26.6402 142.389 27.2348 142.98 27.6364C143.571 28.0379 144.34 28.2386 145.287 28.2386C146.264 28.2386 147.048 28.0379 147.639 27.6364C148.238 27.2348 148.537 26.7386 148.537 26.1477C148.537 25.6477 148.344 25.2348 147.957 24.9091C147.579 24.5833 146.988 24.3333 146.185 24.1591L143.207 23.5341C141.533 23.1856 140.295 22.5985 139.491 21.7727C138.688 20.9394 138.291 19.8864 138.298 18.6136C138.291 17.5379 138.582 16.6061 139.173 15.8182C139.772 15.0227 140.601 14.4091 141.662 13.9773C142.73 13.5379 143.961 13.3182 145.355 13.3182C147.401 13.3182 149.01 13.7538 150.185 14.625C151.366 15.4962 152.098 16.6742 152.378 18.1591Z" fill="white"/>
<path d="M118.09 52.4973C28.0457 33.3439 16.5214 39.0099 18.0898 58.4973" stroke="white" stroke-width="3"/>
</svg>
