<svg width="20" height="20" viewBox="0 0 20 20" fill="none" xmlns="http://www.w3.org/2000/svg">
<path d="M12.2583 13.2333L9.02499 10L12.2583 6.76668C12.3355 6.68953 12.3967 6.59793 12.4384 6.49713C12.4802 6.39633 12.5017 6.28829 12.5017 6.17918C12.5017 6.07007 12.4802 5.96203 12.4384 5.86123C12.3967 5.76042 12.3355 5.66883 12.2583 5.59168C12.1812 5.51453 12.0896 5.45333 11.9888 5.41157C11.888 5.36982 11.7799 5.34833 11.6708 5.34833C11.5617 5.34833 11.4537 5.36982 11.3529 5.41157C11.2521 5.45333 11.1605 5.51453 11.0833 5.59168L7.25832 9.41668C7.18107 9.49377 7.11978 9.58535 7.07796 9.68616C7.03614 9.78697 7.01462 9.89504 7.01462 10.0042C7.01462 10.1133 7.03614 10.2214 7.07796 10.3222C7.11978 10.423 7.18107 10.5146 7.25832 10.5917L11.0833 14.4167C11.4083 14.7417 11.9333 14.7417 12.2583 14.4167C12.575 14.0917 12.5833 13.5583 12.2583 13.2333Z" fill="#4E4E4E"/>
</svg>
