<svg width="15" height="14" viewBox="0 0 15 14" fill="none" xmlns="http://www.w3.org/2000/svg">
<path d="M3.52832 3.94444H12.0856C12.259 3.94445 12.4305 3.98024 12.589 4.0495C12.7475 4.11876 12.8895 4.21995 13.0058 4.34656C13.1222 4.47317 13.2103 4.62239 13.2645 4.78458C13.3187 4.94678 13.3378 5.11837 13.3205 5.28828L12.9482 8.95494C12.9176 9.25653 12.7743 9.53615 12.5461 9.73953C12.3179 9.94291 12.0211 10.0555 11.7133 10.0556H5.78711C5.50009 10.0557 5.2219 9.9578 4.99991 9.77863C4.77792 9.59946 4.62585 9.35006 4.5696 9.07289L3.52832 3.94444Z" stroke="white" stroke-width="1.66667" stroke-linejoin="round"/>
<path d="M3.52826 3.94444L3.02562 1.96261C2.992 1.83046 2.91451 1.71316 2.80546 1.62934C2.6964 1.54553 2.56203 1.5 2.42369 1.5H1.66663M5.3899 12.5H6.63099M10.3543 12.5H11.5954" stroke="white" stroke-width="1.66667" stroke-linecap="round" stroke-linejoin="round"/>
</svg>
