<svg width="15" height="15" viewBox="0 0 15 15" fill="none" xmlns="http://www.w3.org/2000/svg">
<mask id="path-1-inside-1_36_13" fill="white">
<path d="M13.5152 14.6392L9.01926 10.1433C8.61784 10.4644 8.15621 10.7187 7.63436 10.906C7.11251 11.0933 6.55722 11.187 5.96847 11.187C4.50997 11.187 3.27574 10.682 2.26576 9.67202C1.25525 8.6615 0.75 7.42699 0.75 5.96849C0.75 4.50999 1.25525 3.27548 2.26576 2.26497C3.27574 1.25499 4.50997 0.75 5.96847 0.75C7.42696 0.75 8.66146 1.25499 9.67197 2.26497C10.6819 3.27548 11.1869 4.50999 11.1869 5.96849C11.1869 6.55724 11.0933 7.11255 10.9059 7.63439C10.7186 8.15624 10.4644 8.61788 10.1432 9.0193L14.6592 13.5353C14.8064 13.6825 14.88 13.8631 14.88 14.0772C14.88 14.2913 14.7997 14.4786 14.6391 14.6392C14.492 14.7864 14.3046 14.86 14.0772 14.86C13.8497 14.86 13.6624 14.7864 13.5152 14.6392V14.6392ZM5.96847 9.58129C6.97202 9.58129 7.82517 9.23018 8.52792 8.52796C9.23014 7.8252 9.58125 6.97205 9.58125 5.96849C9.58125 4.96494 9.23014 4.11178 8.52792 3.40902C7.82517 2.7068 6.97202 2.35569 5.96847 2.35569C4.96491 2.35569 4.11176 2.7068 3.40901 3.40902C2.70679 4.11178 2.35568 4.96494 2.35568 5.96849C2.35568 6.97205 2.70679 7.8252 3.40901 8.52796C4.11176 9.23018 4.96491 9.58129 5.96847 9.58129Z"/>
</mask>
<path d="M13.5152 14.6392L9.01926 10.1433C8.61784 10.4644 8.15621 10.7187 7.63436 10.906C7.11251 11.0933 6.55722 11.187 5.96847 11.187C4.50997 11.187 3.27574 10.682 2.26576 9.67202C1.25525 8.6615 0.75 7.42699 0.75 5.96849C0.75 4.50999 1.25525 3.27548 2.26576 2.26497C3.27574 1.25499 4.50997 0.75 5.96847 0.75C7.42696 0.75 8.66146 1.25499 9.67197 2.26497C10.6819 3.27548 11.1869 4.50999 11.1869 5.96849C11.1869 6.55724 11.0933 7.11255 10.9059 7.63439C10.7186 8.15624 10.4644 8.61788 10.1432 9.0193L14.6592 13.5353C14.8064 13.6825 14.88 13.8631 14.88 14.0772C14.88 14.2913 14.7997 14.4786 14.6391 14.6392C14.492 14.7864 14.3046 14.86 14.0772 14.86C13.8497 14.86 13.6624 14.7864 13.5152 14.6392V14.6392ZM5.96847 9.58129C6.97202 9.58129 7.82517 9.23018 8.52792 8.52796C9.23014 7.8252 9.58125 6.97205 9.58125 5.96849C9.58125 4.96494 9.23014 4.11178 8.52792 3.40902C7.82517 2.7068 6.97202 2.35569 5.96847 2.35569C4.96491 2.35569 4.11176 2.7068 3.40901 3.40902C2.70679 4.11178 2.35568 4.96494 2.35568 5.96849C2.35568 6.97205 2.70679 7.8252 3.40901 8.52796C4.11176 9.23018 4.96491 9.58129 5.96847 9.58129Z" fill="white"/>
<path d="M9.01926 10.1433L12.5548 6.60776L9.39034 3.44328L5.89578 6.23895L9.01926 10.1433ZM9.67197 2.26497L13.2085 -1.26962L13.2066 -1.27149L9.67197 2.26497ZM10.1432 9.0193L6.23889 5.89584L3.44326 9.39038L6.6077 12.5548L10.1432 9.0193ZM14.6592 13.5353L18.1948 9.99978L18.1948 9.99978L14.6592 13.5353ZM14.6391 14.6392L11.1036 11.1037L14.6391 14.6392ZM8.52792 8.52796L12.0621 12.0648L12.0648 12.0621L8.52792 8.52796ZM8.52792 3.40902L12.0648 -0.125157L12.0621 -0.12785L8.52792 3.40902ZM3.40901 3.40902L-0.125188 -0.127851L-0.12788 -0.125156L3.40901 3.40902ZM3.40901 8.52796L-0.127881 12.0621L-0.125187 12.0648L3.40901 8.52796ZM17.0507 11.1037L12.5548 6.60776L5.48372 13.6788L9.97963 18.1747L17.0507 11.1037ZM5.89578 6.23895C5.92374 6.21658 5.94675 6.20234 5.95993 6.19508C5.97268 6.18806 5.96966 6.19118 5.94503 6.20002L9.32369 15.612C10.3237 15.253 11.2782 14.7393 12.1427 14.0476L5.89578 6.23895ZM5.94503 6.20002C5.95547 6.19627 5.96548 6.19321 5.97459 6.19084C5.98367 6.18847 5.99061 6.1871 5.99487 6.18638C6.00415 6.18482 5.99677 6.18698 5.96847 6.18698V16.187C7.09719 16.187 8.22711 16.0056 9.32369 15.612L5.94503 6.20002ZM5.96847 6.18698C5.89322 6.18698 5.85209 6.18056 5.83827 6.17797C5.82541 6.17556 5.82908 6.17519 5.84233 6.18061C5.85572 6.18609 5.86368 6.19126 5.86282 6.19068C5.86127 6.18964 5.84016 6.17534 5.80131 6.13649L-1.26978 13.2075C0.699851 15.1772 3.21529 16.187 5.96847 16.187V6.18698ZM5.80131 6.13649C5.76221 6.09739 5.74772 6.07604 5.74654 6.07429C5.74583 6.07323 5.75093 6.08104 5.75638 6.09435C5.76176 6.10752 5.76139 6.11117 5.75899 6.09837C5.75641 6.08461 5.75 6.04358 5.75 5.96849H-4.25C-4.25 8.72246 -3.23939 11.2379 -1.26978 13.2075L5.80131 6.13649ZM5.75 5.96849C5.75 5.8934 5.75641 5.85237 5.75899 5.83861C5.76139 5.82581 5.76176 5.82947 5.75638 5.84263C5.75093 5.85595 5.74583 5.86375 5.74654 5.86269C5.74772 5.86094 5.76221 5.83959 5.80131 5.80049L-1.26978 -1.27056C-3.23939 0.699064 -4.25 3.21452 -4.25 5.96849H5.75ZM5.80131 5.80049C5.84016 5.76164 5.86127 5.74735 5.86282 5.7463C5.86368 5.74572 5.85572 5.7509 5.84233 5.75638C5.82908 5.7618 5.82541 5.76142 5.83827 5.75901C5.85209 5.75642 5.89322 5.75 5.96847 5.75V-4.25C3.21529 -4.25 0.699851 -3.2402 -1.26978 -1.27056L5.80131 5.80049ZM5.96847 5.75C6.04371 5.75 6.08489 5.75642 6.0988 5.75903C6.11175 5.76146 6.10823 5.76187 6.09516 5.75652C6.08194 5.75111 6.07418 5.74605 6.07525 5.74677C6.07701 5.74795 6.09832 5.76241 6.13736 5.80143L13.2066 -1.27149C11.2368 -3.24027 8.7216 -4.25 5.96847 -4.25V5.75ZM6.13549 5.79956C6.17451 5.8386 6.18897 5.85992 6.19016 5.86167C6.19088 5.86274 6.18581 5.85499 6.18041 5.84177C6.17506 5.82871 6.17547 5.82519 6.1779 5.83814C6.18051 5.85206 6.18693 5.89325 6.18693 5.96849H16.1869C16.1869 3.21537 15.1772 0.700197 13.2084 -1.26962L6.13549 5.79956ZM6.18693 5.96849C6.18693 5.9968 6.18476 6.00419 6.18633 5.99491C6.18705 5.99066 6.18841 5.98372 6.19078 5.97463C6.19316 5.96553 6.19621 5.95552 6.19996 5.94508L15.6119 9.32371C16.0056 8.22713 16.1869 7.09722 16.1869 5.96849H6.18693ZM6.19996 5.94508C6.19112 5.96971 6.188 5.97273 6.19502 5.95999C6.20228 5.94681 6.21652 5.9238 6.23889 5.89584L14.0476 12.1428C14.7393 11.2782 15.2529 10.3237 15.6119 9.32371L6.19996 5.94508ZM6.6077 12.5548L11.1237 17.0708L18.1948 9.99978L13.6788 5.48378L6.6077 12.5548ZM11.1237 17.0708C10.7581 16.7053 10.4255 16.2351 10.1943 15.6676C9.96428 15.103 9.88 14.5536 9.88 14.0772H19.88C19.88 12.5794 19.3091 11.1142 18.1948 9.99978L11.1237 17.0708ZM9.88 14.0772C9.88 13.5419 9.9841 12.9686 10.2241 12.4087C10.4616 11.8545 10.7854 11.4219 11.1036 11.1037L18.1747 18.1747C19.2098 17.1396 19.88 15.7041 19.88 14.0772H9.88ZM11.1036 11.1037C11.4991 10.7082 11.9917 10.3743 12.56 10.1511C13.1196 9.93121 13.6461 9.86 14.0772 9.86V19.86C15.4953 19.86 16.9982 19.3512 18.1747 18.1747L11.1036 11.1037ZM14.0772 9.86C14.5082 9.86 15.0348 9.93121 15.5943 10.1511C16.1626 10.3743 16.6552 10.7082 17.0507 11.1037L9.97963 18.1747C11.1561 19.3512 12.659 19.86 14.0772 19.86V9.86ZM5.96847 14.5813C8.28232 14.5813 10.4112 13.7146 12.0621 12.0648L4.99373 4.99109C5.07286 4.91202 5.22889 4.78855 5.45811 4.69421C5.68633 4.60029 5.87514 4.58129 5.96847 4.58129V14.5813ZM12.0648 12.0621C13.7145 10.4112 14.5812 8.28234 14.5812 5.96849H4.58125C4.58125 5.87518 4.60025 5.68637 4.69416 5.45816C4.78849 5.22895 4.91196 5.07291 4.99103 4.99378L12.0648 12.0621ZM14.5812 5.96849C14.5812 3.65465 13.7145 1.52582 12.0648 -0.125156L4.99103 6.9432C4.91196 6.86407 4.78849 6.70804 4.69416 6.47882C4.60025 6.25061 4.58125 6.06181 4.58125 5.96849H14.5812ZM12.0621 -0.12785C10.4111 -1.77757 8.28232 -2.64431 5.96847 -2.64431V7.35569C5.87514 7.35569 5.68633 7.33669 5.45811 7.24277C5.22889 7.14844 5.07286 7.02496 4.99373 6.94589L12.0621 -0.12785ZM5.96847 -2.64431C3.65461 -2.64431 1.52578 -1.77757 -0.125187 -0.12785L6.9432 6.94589C6.86407 7.02496 6.70804 7.14844 6.47882 7.24277C6.2506 7.33669 6.06179 7.35569 5.96847 7.35569V-2.64431ZM-0.12788 -0.125156C-1.77759 1.52582 -2.64432 3.65465 -2.64432 5.96849H7.35568C7.35568 6.06181 7.33668 6.25061 7.24277 6.47882C7.14844 6.70804 7.02497 6.86407 6.9459 6.9432L-0.12788 -0.125156ZM-2.64432 5.96849C-2.64432 8.28234 -1.77759 10.4112 -0.12788 12.0621L6.9459 4.99378C7.02497 5.07291 7.14844 5.22895 7.24277 5.45816C7.33668 5.68637 7.35568 5.87518 7.35568 5.96849H-2.64432ZM-0.125187 12.0648C1.52578 13.7146 3.65461 14.5813 5.96847 14.5813V4.58129C6.06179 4.58129 6.25061 4.60029 6.47882 4.69421C6.70804 4.78855 6.86407 4.91202 6.9432 4.99109L-0.125187 12.0648Z" fill="white" mask="url(#path-1-inside-1_36_13)"/>
</svg>
